<?xml version="1.0" encoding="UTF-8" standalone="no"?><!DOCTYPE svg PUBLIC "-//W3C//DTD SVG 1.1//EN" "http://www.w3.org/Graphics/SVG/1.1/DTD/svg11.dtd"><svg width="100%" height="100%" viewBox="0 0 640 640" version="1.1" xmlns="http://www.w3.org/2000/svg" xmlns:xlink="http://www.w3.org/1999/xlink" xml:space="preserve" style="fill-rule:evenodd;clip-rule:evenodd;stroke-linejoin:round;stroke-miterlimit:1.41421;"><g><circle cx="320" cy="320" r="299.679" style="fill:#2c323b;"/><path d="M75.299,494.014l0,-16.32l224.174,-224.117c-2.406,-10.484 -3.667,-21.369 -3.667,-32.597c0,-81.008 65.654,-146.662 146.662,-146.662c28.956,0 55.962,8.394 78.708,22.884c23.151,20.921 43.031,45.396 58.776,72.56c5.933,15.926 9.177,33.163 9.177,51.16c0,81.008 -65.654,146.662 -146.661,146.662c-11.458,0 -22.572,-1.318 -33.286,-3.781l-40.561,40.561l-73.33,0l0,36.665l-36.665,0l0,36.665l-36.666,0l0,36.665l-36.665,36.666l-57.061,0c-20.002,-16.624 -37.813,-35.794 -52.935,-57.011Zm219.992,-162.981l-183.327,183.326l0,-36.665l183.327,-183.326l0,36.665Zm183.326,-109.996c-20.223,0 -36.665,-16.442 -36.665,-36.665c0,-20.224 16.442,-36.666 36.665,-36.666c20.224,0 36.666,16.442 36.666,36.666c0,20.223 -16.442,36.665 -36.666,36.665Z" style="fill:#fff;"/></g></svg>